<?xml version="1.0" standalone="no"?>
<!DOCTYPE svg PUBLIC "-//W3C//DTD SVG 20010904//EN"
 "http://www.w3.org/TR/2001/REC-SVG-20010904/DTD/svg10.dtd">
<svg version="1.0" xmlns="http://www.w3.org/2000/svg"
 width="340.000000pt" height="340.000000pt" viewBox="0 0 340.000000 340.000000"
 preserveAspectRatio="xMidYMid meet">

<g transform="translate(0.000000,340.000000) scale(0.100000,-0.100000)"
fill="#000000" stroke="none">
<path d="M1984 2546 c-75 -50 -82 -53 -139 -51 -54 1 -68 7 -132 49 -71 47
-105 55 -111 25 -2 -10 23 -32 67 -62 l71 -47 -25 -36 c-14 -20 -25 -41 -25
-45 0 -5 -37 -9 -82 -9 -66 0 -90 -4 -116 -20 -57 -35 -62 -61 -62 -330 0
-269 5 -295 62 -330 31 -19 50 -20 351 -20 345 0 353 1 396 56 20 26 21 38 21
295 l0 269 -34 38 c-34 37 -35 37 -128 41 l-93 3 -23 46 c-12 24 -21 46 -20
47 2 1 31 21 66 44 61 41 79 72 48 84 -7 3 -49 -18 -92 -47z m84 -382 c26 -18
29 -60 5 -86 -15 -16 -35 -18 -229 -18 -209 0 -213 0 -228 22 -21 29 -20 40 5
72 l20 26 203 0 c166 0 205 -3 224 -16z"/>
<path d="M1510 1587 c-14 -8 -96 -86 -183 -174 -156 -158 -160 -161 -189 -151
-16 6 -47 7 -70 4 -45 -7 -118 -42 -118 -56 0 -5 16 -25 35 -44 33 -33 36 -34
62 -21 44 23 72 18 109 -19 38 -38 44 -77 19 -114 -15 -21 -14 -23 21 -54 21
-18 42 -33 48 -33 5 0 19 16 30 35 17 28 21 51 20 112 l-1 77 69 68 68 67 0
-144 c0 -126 3 -149 20 -177 37 -62 45 -63 406 -63 l326 0 39 39 39 39 0 153
0 154 71 -71 72 -72 1 -78 c1 -65 5 -86 25 -117 l24 -39 39 40 c35 34 39 42
29 60 -45 84 39 179 124 139 32 -15 33 -15 69 22 l37 38 -27 22 c-37 29 -98
44 -154 36 l-47 -6 -154 156 c-85 86 -168 163 -186 171 -46 20 -636 20 -673 1z
m163 -238 c47 -64 -46 -136 -103 -79 -26 26 -25 60 1 89 28 30 75 25 102 -10z
m222 11 c39 -43 9 -110 -51 -110 -57 0 -85 69 -44 110 26 26 72 26 95 0z m223
4 c27 -18 30 -69 5 -96 -20 -22 -70 -23 -95 -1 -39 35 -8 113 45 113 12 0 33
-7 45 -16z"/>
<path d="M1586 783 c38 -212 288 -296 443 -150 39 37 81 120 81 160 l0 27
-265 0 -266 0 7 -37z"/>
</g>
</svg>
